<svg xmlns="http://www.w3.org/2000/svg" xmlns:xlink="http://www.w3.org/1999/xlink" width="1280" zoomAndPan="magnify" viewBox="0 0 960 299.999988" height="400" preserveAspectRatio="xMidYMid meet" version="1.0"><defs><g/></defs><g fill="#000000" fill-opacity="1"><g transform="translate(67.291639, 195.666824)"><g><path d="M 65.6875 -71.5625 L 65.6875 0 L 34.796875 0 L 34.796875 -71.5625 L 3.21875 -71.5625 L 3.21875 -96.15625 L 97.140625 -96.15625 L 97.140625 -71.5625 Z M 65.6875 -71.5625 "/></g></g></g><g fill="#000000" fill-opacity="1"><g transform="translate(158.69288, 195.666824)"><g><path d="M 46.546875 -75.46875 C 59.492188 -75.46875 69.671875 -72.179688 77.078125 -65.609375 C 84.484375 -59.046875 88.1875 -49.472656 88.1875 -36.890625 C 88.1875 -24.316406 84.484375 -14.742188 77.078125 -8.171875 C 69.671875 -1.609375 59.492188 1.671875 46.546875 1.671875 C 33.585938 1.671875 23.425781 -1.585938 16.0625 -8.109375 C 8.707031 -14.628906 5.03125 -24.222656 5.03125 -36.890625 C 5.03125 -49.566406 8.707031 -59.164062 16.0625 -65.6875 C 23.425781 -72.207031 33.585938 -75.46875 46.546875 -75.46875 Z M 46.546875 -56.609375 C 37.410156 -56.609375 32.84375 -51.34375 32.84375 -40.8125 L 32.84375 -32.84375 C 32.84375 -22.40625 37.410156 -17.1875 46.546875 -17.1875 C 55.765625 -17.1875 60.375 -22.40625 60.375 -32.84375 L 60.375 -40.8125 C 60.375 -51.34375 55.765625 -56.609375 46.546875 -56.609375 Z M 46.546875 -56.609375 "/></g></g></g><g fill="#000000" fill-opacity="1"><g transform="translate(251.911294, 195.666824)"><g><path d="M 57.03125 -75.46875 C 67 -75.46875 74.679688 -72.207031 80.078125 -65.6875 C 85.484375 -59.164062 88.1875 -49.523438 88.1875 -36.765625 C 88.1875 -24.085938 85.484375 -14.507812 80.078125 -8.03125 C 74.679688 -1.5625 67 1.671875 57.03125 1.671875 C 48.457031 1.671875 41.5625 -1.117188 36.34375 -6.703125 L 36.34375 27.53125 L 8.53125 27.53125 L 8.53125 -73.796875 L 31.171875 -73.796875 L 33.546875 -63.3125 C 38.953125 -71.414062 46.78125 -75.46875 57.03125 -75.46875 Z M 48.359375 -54.921875 C 44.253906 -54.921875 41.175781 -53.476562 39.125 -50.59375 C 37.082031 -47.707031 36.0625 -43.9375 36.0625 -39.28125 L 36.0625 -34.65625 C 36.0625 -30 37.082031 -26.203125 39.125 -23.265625 C 41.175781 -20.335938 44.253906 -18.875 48.359375 -18.875 C 56.367188 -18.875 60.375 -23.671875 60.375 -33.265625 L 60.375 -40.671875 C 60.375 -50.171875 56.367188 -54.921875 48.359375 -54.921875 Z M 48.359375 -54.921875 "/></g></g></g><g fill="#000000" fill-opacity="1"><g transform="translate(345.12972, 195.666824)"><g/></g></g><g fill="#000000" fill-opacity="1"><g transform="translate(391.669038, 195.666824)"><g><path d="M 65.6875 -71.5625 L 65.6875 0 L 34.796875 0 L 34.796875 -71.5625 L 3.21875 -71.5625 L 3.21875 -96.15625 L 97.140625 -96.15625 L 97.140625 -71.5625 Z M 65.6875 -71.5625 "/></g></g></g><g fill="#000000" fill-opacity="1"><g transform="translate(486.564356, 195.666824)"><g><path d="M 53.25 -75.609375 C 55.394531 -75.609375 57.304688 -75.351562 58.984375 -74.84375 C 60.660156 -74.332031 61.5 -74.03125 61.5 -73.9375 L 61.5 -50.59375 L 52.546875 -50.59375 C 46.773438 -50.59375 42.609375 -49.101562 40.046875 -46.125 C 37.484375 -43.144531 36.203125 -38.71875 36.203125 -32.84375 L 36.203125 0 L 8.390625 0 L 8.390625 -73.796875 L 31.171875 -73.796875 L 32.984375 -62.609375 C 34.660156 -66.898438 37.316406 -70.140625 40.953125 -72.328125 C 44.585938 -74.515625 48.6875 -75.609375 53.25 -75.609375 Z M 53.25 -75.609375 "/></g></g></g><g fill="#000000" fill-opacity="1"><g transform="translate(550.992756, 195.666824)"><g><path d="M 44.859375 -75.46875 C 56.140625 -75.46875 65.316406 -73.582031 72.390625 -69.8125 C 79.472656 -66.039062 83.015625 -59.914062 83.015625 -51.4375 L 83.015625 -22.640625 C 83.015625 -21.054688 83.382812 -19.75 84.125 -18.71875 C 84.875 -17.695312 86 -17.1875 87.5 -17.1875 L 92.53125 -17.1875 L 92.53125 -1.125 C 92.25 -0.9375 91.523438 -0.628906 90.359375 -0.203125 C 89.191406 0.210938 87.535156 0.628906 85.390625 1.046875 C 83.253906 1.460938 80.785156 1.671875 77.984375 1.671875 C 72.585938 1.671875 68.140625 0.859375 64.640625 -0.765625 C 61.148438 -2.398438 58.75 -4.660156 57.4375 -7.546875 C 53.894531 -4.753906 49.9375 -2.519531 45.5625 -0.84375 C 41.1875 0.832031 36.0625 1.671875 30.1875 1.671875 C 12.851562 1.671875 4.1875 -5.222656 4.1875 -19.015625 C 4.1875 -26.179688 6.117188 -31.648438 9.984375 -35.421875 C 13.859375 -39.203125 19.425781 -41.789062 26.6875 -43.1875 C 33.957031 -44.582031 43.460938 -45.28125 55.203125 -45.28125 L 55.203125 -48.921875 C 55.203125 -51.804688 54.203125 -53.992188 52.203125 -55.484375 C 50.203125 -56.972656 47.617188 -57.71875 44.453125 -57.71875 C 41.554688 -57.71875 39.0625 -57.203125 36.96875 -56.171875 C 34.875 -55.148438 33.828125 -53.523438 33.828125 -51.296875 L 33.828125 -50.734375 L 6.421875 -50.734375 C 6.335938 -51.203125 6.296875 -51.851562 6.296875 -52.6875 C 6.296875 -59.675781 9.625 -65.21875 16.28125 -69.3125 C 22.945312 -73.414062 32.472656 -75.46875 44.859375 -75.46875 Z M 55.203125 -32.140625 C 47.285156 -32.140625 41.4375 -31.273438 37.65625 -29.546875 C 33.882812 -27.828125 32 -25.523438 32 -22.640625 C 32 -17.984375 35.171875 -15.65625 41.515625 -15.65625 C 45.148438 -15.65625 48.335938 -16.632812 51.078125 -18.59375 C 53.828125 -20.550781 55.203125 -22.972656 55.203125 -25.859375 Z M 55.203125 -32.140625 "/></g></g></g><g fill="#000000" fill-opacity="1"><g transform="translate(644.211148, 195.666824)"><g><path d="M 62.0625 0 L 59.6875 -10.484375 C 54.28125 -2.378906 46.453125 1.671875 36.203125 1.671875 C 26.234375 1.671875 18.546875 -1.585938 13.140625 -8.109375 C 7.734375 -14.628906 5.03125 -24.269531 5.03125 -37.03125 C 5.03125 -49.707031 7.734375 -59.28125 13.140625 -65.75 C 18.546875 -72.226562 26.234375 -75.46875 36.203125 -75.46875 C 44.679688 -75.46875 51.578125 -72.628906 56.890625 -66.953125 L 56.890625 -101.328125 L 84.703125 -101.328125 L 84.703125 0 Z M 44.859375 -54.921875 C 36.847656 -54.921875 32.84375 -50.125 32.84375 -40.53125 L 32.84375 -33.125 C 32.84375 -23.625 36.847656 -18.875 44.859375 -18.875 C 48.960938 -18.875 52.039062 -20.316406 54.09375 -23.203125 C 56.144531 -26.085938 57.171875 -29.859375 57.171875 -34.515625 L 57.171875 -39.140625 C 57.171875 -43.796875 56.144531 -47.585938 54.09375 -50.515625 C 52.039062 -53.453125 48.960938 -54.921875 44.859375 -54.921875 Z M 44.859375 -54.921875 "/></g></g></g><g fill="#000000" fill-opacity="1"><g transform="translate(737.429585, 195.666824)"><g><path d="M 46.546875 -75.46875 C 60.054688 -75.46875 70.375 -72.300781 77.5 -65.96875 C 84.625 -59.632812 88.1875 -49.941406 88.1875 -36.890625 L 88.1875 -32.140625 L 32.84375 -32.140625 C 32.84375 -26.828125 34.03125 -22.820312 36.40625 -20.125 C 38.78125 -17.425781 42.53125 -16.078125 47.65625 -16.078125 C 52.3125 -16.078125 55.734375 -17.050781 57.921875 -19 C 60.117188 -20.957031 61.21875 -23.566406 61.21875 -26.828125 L 88.1875 -26.828125 C 88.1875 -17.890625 84.785156 -10.90625 77.984375 -5.875 C 71.179688 -0.84375 61.257812 1.671875 48.21875 1.671875 C 34.519531 1.671875 23.894531 -1.515625 16.34375 -7.890625 C 8.800781 -14.273438 5.03125 -23.941406 5.03125 -36.890625 C 5.03125 -49.566406 8.707031 -59.164062 16.0625 -65.6875 C 23.425781 -72.207031 33.585938 -75.46875 46.546875 -75.46875 Z M 47.65625 -57.71875 C 38.894531 -57.71875 34.003906 -53.570312 32.984375 -45.28125 L 60.09375 -45.28125 C 60.09375 -49.101562 59 -52.128906 56.8125 -54.359375 C 54.625 -56.597656 51.570312 -57.71875 47.65625 -57.71875 Z M 47.65625 -57.71875 "/></g></g></g><g fill="#000000" fill-opacity="1"><g transform="translate(830.647977, 195.666824)"><g><path d="M 53.25 -75.609375 C 55.394531 -75.609375 57.304688 -75.351562 58.984375 -74.84375 C 60.660156 -74.332031 61.5 -74.03125 61.5 -73.9375 L 61.5 -50.59375 L 52.546875 -50.59375 C 46.773438 -50.59375 42.609375 -49.101562 40.046875 -46.125 C 37.484375 -43.144531 36.203125 -38.71875 36.203125 -32.84375 L 36.203125 0 L 8.390625 0 L 8.390625 -73.796875 L 31.171875 -73.796875 L 32.984375 -62.609375 C 34.660156 -66.898438 37.316406 -70.140625 40.953125 -72.328125 C 44.585938 -74.515625 48.6875 -75.609375 53.25 -75.609375 Z M 53.25 -75.609375 "/></g></g></g></svg>