<svg xmlns="http://www.w3.org/2000/svg" xmlns:xlink="http://www.w3.org/1999/xlink" width="1280" zoomAndPan="magnify" viewBox="0 0 960 299.999988" height="400" preserveAspectRatio="xMidYMid meet" version="1.0"><defs><g/><clipPath id="fdb627a23f"><rect x="0" width="827" y="0" height="153"/></clipPath></defs><g transform="matrix(1, 0, 0, 1, 67, 73)"><g clip-path="url(#fdb627a23f)"><g fill="#ffffff" fill-opacity="1"><g transform="translate(0.301857, 122.944974)"><g><path d="M 65.6875 -71.546875 L 65.6875 0 L 34.796875 0 L 34.796875 -71.546875 L 3.21875 -71.546875 L 3.21875 -96.140625 L 97.125 -96.140625 L 97.125 -71.546875 Z M 65.6875 -71.546875 "/></g></g></g><g fill="#ffffff" fill-opacity="1"><g transform="translate(91.700812, 122.944974)"><g><path d="M 46.53125 -75.46875 C 59.488281 -75.46875 69.671875 -72.179688 77.078125 -65.609375 C 84.484375 -59.046875 88.1875 -49.472656 88.1875 -36.890625 C 88.1875 -24.316406 84.484375 -14.742188 77.078125 -8.171875 C 69.671875 -1.609375 59.488281 1.671875 46.53125 1.671875 C 33.582031 1.671875 23.425781 -1.585938 16.0625 -8.109375 C 8.707031 -14.628906 5.03125 -24.222656 5.03125 -36.890625 C 5.03125 -49.566406 8.707031 -59.164062 16.0625 -65.6875 C 23.425781 -72.207031 33.582031 -75.46875 46.53125 -75.46875 Z M 46.53125 -56.59375 C 37.40625 -56.59375 32.84375 -51.332031 32.84375 -40.8125 L 32.84375 -32.84375 C 32.84375 -22.40625 37.40625 -17.1875 46.53125 -17.1875 C 55.757812 -17.1875 60.375 -22.40625 60.375 -32.84375 L 60.375 -40.8125 C 60.375 -51.332031 55.757812 -56.59375 46.53125 -56.59375 Z M 46.53125 -56.59375 "/></g></g></g><g fill="#ffffff" fill-opacity="1"><g transform="translate(184.916719, 122.944974)"><g><path d="M 57.015625 -75.46875 C 66.984375 -75.46875 74.671875 -72.207031 80.078125 -65.6875 C 85.484375 -59.164062 88.1875 -49.519531 88.1875 -36.75 C 88.1875 -24.082031 85.484375 -14.507812 80.078125 -8.03125 C 74.671875 -1.5625 66.984375 1.671875 57.015625 1.671875 C 48.441406 1.671875 41.546875 -1.117188 36.328125 -6.703125 L 36.328125 27.53125 L 8.53125 27.53125 L 8.53125 -73.78125 L 31.171875 -73.78125 L 33.546875 -63.3125 C 38.941406 -71.414062 46.765625 -75.46875 57.015625 -75.46875 Z M 48.359375 -54.921875 C 44.253906 -54.921875 41.175781 -53.472656 39.125 -50.578125 C 37.082031 -47.691406 36.0625 -43.921875 36.0625 -39.265625 L 36.0625 -34.65625 C 36.0625 -30 37.082031 -26.203125 39.125 -23.265625 C 41.175781 -20.328125 44.253906 -18.859375 48.359375 -18.859375 C 56.367188 -18.859375 60.375 -23.660156 60.375 -33.265625 L 60.375 -40.671875 C 60.375 -50.171875 56.367188 -54.921875 48.359375 -54.921875 Z M 48.359375 -54.921875 "/></g></g></g><g fill="#ffffff" fill-opacity="1"><g transform="translate(278.132614, 122.944974)"><g/></g></g><g fill="#ffffff" fill-opacity="1"><g transform="translate(324.670705, 122.944974)"><g><path d="M 65.6875 -71.546875 L 65.6875 0 L 34.796875 0 L 34.796875 -71.546875 L 3.21875 -71.546875 L 3.21875 -96.140625 L 97.125 -96.140625 L 97.125 -71.546875 Z M 65.6875 -71.546875 "/></g></g></g><g fill="#ffffff" fill-opacity="1"><g transform="translate(419.563575, 122.944974)"><g><path d="M 53.25 -75.609375 C 55.382812 -75.609375 57.289062 -75.347656 58.96875 -74.828125 C 60.644531 -74.316406 61.484375 -74.015625 61.484375 -73.921875 L 61.484375 -50.59375 L 52.546875 -50.59375 C 46.765625 -50.59375 42.59375 -49.097656 40.03125 -46.109375 C 37.46875 -43.128906 36.1875 -38.707031 36.1875 -32.84375 L 36.1875 0 L 8.390625 0 L 8.390625 -73.78125 L 31.171875 -73.78125 L 32.984375 -62.609375 C 34.660156 -66.890625 37.3125 -70.125 40.9375 -72.3125 C 44.570312 -74.507812 48.675781 -75.609375 53.25 -75.609375 Z M 53.25 -75.609375 "/></g></g></g><g fill="#ffffff" fill-opacity="1"><g transform="translate(483.990177, 122.944974)"><g><path d="M 44.859375 -75.46875 C 56.128906 -75.46875 65.304688 -73.578125 72.390625 -69.796875 C 79.472656 -66.023438 83.015625 -59.898438 83.015625 -51.421875 L 83.015625 -22.640625 C 83.015625 -21.054688 83.382812 -19.75 84.125 -18.71875 C 84.875 -17.695312 85.992188 -17.1875 87.484375 -17.1875 L 92.515625 -17.1875 L 92.515625 -1.125 C 92.234375 -0.9375 91.507812 -0.628906 90.34375 -0.203125 C 89.175781 0.210938 87.519531 0.628906 85.375 1.046875 C 83.238281 1.460938 80.773438 1.671875 77.984375 1.671875 C 72.578125 1.671875 68.125 0.859375 64.625 -0.765625 C 61.132812 -2.398438 58.738281 -4.660156 57.4375 -7.546875 C 53.894531 -4.753906 49.929688 -2.519531 45.546875 -0.84375 C 41.171875 0.832031 36.050781 1.671875 30.1875 1.671875 C 12.851562 1.671875 4.1875 -5.21875 4.1875 -19 C 4.1875 -26.175781 6.117188 -31.648438 9.984375 -35.421875 C 13.859375 -39.203125 19.425781 -41.789062 26.6875 -43.1875 C 33.957031 -44.582031 43.460938 -45.28125 55.203125 -45.28125 L 55.203125 -48.90625 C 55.203125 -51.800781 54.195312 -53.992188 52.1875 -55.484375 C 50.1875 -56.972656 47.601562 -57.71875 44.4375 -57.71875 C 41.550781 -57.71875 39.054688 -57.203125 36.953125 -56.171875 C 34.859375 -55.148438 33.8125 -53.519531 33.8125 -51.28125 L 33.8125 -50.734375 L 6.421875 -50.734375 C 6.328125 -51.191406 6.28125 -51.84375 6.28125 -52.6875 C 6.28125 -59.675781 9.609375 -65.21875 16.265625 -69.3125 C 22.929688 -73.414062 32.460938 -75.46875 44.859375 -75.46875 Z M 55.203125 -32.140625 C 47.285156 -32.140625 41.4375 -31.273438 37.65625 -29.546875 C 33.882812 -27.828125 32 -25.523438 32 -22.640625 C 32 -17.984375 35.164062 -15.65625 41.5 -15.65625 C 45.132812 -15.65625 48.328125 -16.628906 51.078125 -18.578125 C 53.828125 -20.535156 55.203125 -22.960938 55.203125 -25.859375 Z M 55.203125 -32.140625 "/></g></g></g><g fill="#ffffff" fill-opacity="1"><g transform="translate(577.206098, 122.944974)"><g><path d="M 62.046875 0 L 59.671875 -10.484375 C 54.265625 -2.378906 46.4375 1.671875 36.1875 1.671875 C 26.21875 1.671875 18.53125 -1.585938 13.125 -8.109375 C 7.726562 -14.628906 5.03125 -24.269531 5.03125 -37.03125 C 5.03125 -49.707031 7.726562 -59.28125 13.125 -65.75 C 18.53125 -72.226562 26.21875 -75.46875 36.1875 -75.46875 C 44.664062 -75.46875 51.5625 -72.625 56.875 -66.9375 L 56.875 -101.3125 L 84.6875 -101.3125 L 84.6875 0 Z M 44.859375 -54.921875 C 36.847656 -54.921875 32.84375 -50.125 32.84375 -40.53125 L 32.84375 -33.125 C 32.84375 -23.613281 36.847656 -18.859375 44.859375 -18.859375 C 48.960938 -18.859375 52.035156 -20.300781 54.078125 -23.1875 C 56.128906 -26.082031 57.15625 -29.859375 57.15625 -34.515625 L 57.15625 -39.125 C 57.15625 -43.789062 56.128906 -47.585938 54.078125 -50.515625 C 52.035156 -53.453125 48.960938 -54.921875 44.859375 -54.921875 Z M 44.859375 -54.921875 "/></g></g></g><g fill="#ffffff" fill-opacity="1"><g transform="translate(670.42202, 122.944974)"><g><path d="M 46.53125 -75.46875 C 60.039062 -75.46875 70.359375 -72.296875 77.484375 -65.953125 C 84.617188 -59.617188 88.1875 -49.929688 88.1875 -36.890625 L 88.1875 -32.140625 L 32.84375 -32.140625 C 32.84375 -26.828125 34.03125 -22.820312 36.40625 -20.125 C 38.78125 -17.425781 42.53125 -16.078125 47.65625 -16.078125 C 52.3125 -16.078125 55.734375 -17.050781 57.921875 -19 C 60.109375 -20.957031 61.203125 -23.566406 61.203125 -26.828125 L 88.1875 -26.828125 C 88.1875 -17.890625 84.785156 -10.90625 77.984375 -5.875 C 71.179688 -0.84375 61.257812 1.671875 48.21875 1.671875 C 34.519531 1.671875 23.894531 -1.515625 16.34375 -7.890625 C 8.800781 -14.273438 5.03125 -23.941406 5.03125 -36.890625 C 5.03125 -49.566406 8.707031 -59.164062 16.0625 -65.6875 C 23.425781 -72.207031 33.582031 -75.46875 46.53125 -75.46875 Z M 47.65625 -57.71875 C 38.894531 -57.71875 34.003906 -53.570312 32.984375 -45.28125 L 60.09375 -45.28125 C 60.09375 -49.101562 59 -52.128906 56.8125 -54.359375 C 54.625 -56.597656 51.570312 -57.71875 47.65625 -57.71875 Z M 47.65625 -57.71875 "/></g></g></g><g fill="#ffffff" fill-opacity="1"><g transform="translate(763.637888, 122.944974)"><g><path d="M 53.25 -75.609375 C 55.382812 -75.609375 57.289062 -75.347656 58.96875 -74.828125 C 60.644531 -74.316406 61.484375 -74.015625 61.484375 -73.921875 L 61.484375 -50.59375 L 52.546875 -50.59375 C 46.765625 -50.59375 42.59375 -49.097656 40.03125 -46.109375 C 37.46875 -43.128906 36.1875 -38.707031 36.1875 -32.84375 L 36.1875 0 L 8.390625 0 L 8.390625 -73.78125 L 31.171875 -73.78125 L 32.984375 -62.609375 C 34.660156 -66.890625 37.3125 -70.125 40.9375 -72.3125 C 44.570312 -74.507812 48.675781 -75.609375 53.25 -75.609375 Z M 53.25 -75.609375 "/></g></g></g></g></g></svg>